<?xml version="1.0" encoding="UTF-8"?>
<svg version="1.1" xmlns="http://www.w3.org/2000/svg" width="1536" height="1024">
<path d="M0 0 C506.88 0 1013.76 0 1536 0 C1536 337.92 1536 675.84 1536 1024 C1029.12 1024 522.24 1024 0 1024 C0 686.08 0 348.16 0 0 Z " fill="#FEFDFD" transform="translate(0,0)"/>
<path d="M0 0 C1.94773315 0.33668701 1.94773315 0.33668701 3.93481445 0.68017578 C15.32120875 2.69591753 26.42016109 5.37066884 37.4375 8.875 C38.23091797 9.12443359 39.02433594 9.37386719 39.84179688 9.63085938 C64.68558377 17.62443514 86.63931488 30.83725926 105.4375 48.875 C106.37851562 49.75285156 107.31953125 50.63070312 108.2890625 51.53515625 C132.58198871 74.61402934 150.8052336 108.56181658 151.73828125 142.50390625 C151.75760113 144.81502672 151.7610713 147.1263253 151.75 149.4375 C151.74508545 150.66114258 151.7401709 151.88478516 151.73510742 153.14550781 C151.32006299 185.55728501 140.10614161 217.31154359 117.4375 240.875 C116.28516574 242.22363899 115.13901891 243.57759658 114 244.9375 C84.07927793 278.91985855 37.59090781 295.61565186 -6.5625 298.875 C-13.22634995 299.22719051 -19.89081497 299.26399736 -26.5625 299.25 C-27.46269867 299.25012085 -28.36289734 299.2502417 -29.29037476 299.25036621 C-47.59795529 299.2158073 -65.46088954 297.4737703 -83.5625 294.875 C-84.92171139 294.68098363 -86.28092363 294.4869732 -87.64013672 294.29296875 C-88.97754542 294.1016069 -90.31494783 293.91020116 -91.65234375 293.71875 C-94.20565191 293.35362597 -96.75903473 292.98902365 -99.3125 292.625 C-100.50311035 292.45436035 -101.6937207 292.2837207 -102.92041016 292.10791016 C-115.20717314 290.37142254 -115.20717314 290.37142254 -127.5625 290.875 C-130.91643261 294.22893261 -129.92365862 299.47958545 -129.953125 304.046875 C-130.11283101 309.44138907 -130.95926405 312.60352756 -134.5625 316.875 C-139.49999729 320.16666486 -144.82101167 319.75538771 -150.5625 318.875 C-176.0717584 312.78237523 -201.71982628 299.9543075 -221.5625 282.875 C-222.36204102 282.1929248 -222.36204102 282.1929248 -223.17773438 281.49707031 C-235.13644407 271.22258234 -235.13644407 271.22258234 -236 264.4375 C-235.40497631 259.59230708 -233.49365424 256.54032064 -229.8527832 253.40063477 C-227.76912649 251.83756621 -225.64777972 250.34870448 -223.5 248.875 C-221.87950334 247.73407358 -220.25973577 246.59211106 -218.640625 245.44921875 C-217.80466797 244.86317871 -216.96871094 244.27713867 -216.10742188 243.67333984 C-211.94734198 240.73366712 -207.8474777 237.71355243 -203.75 234.6875 C-202.55588501 233.8063855 -202.55588501 233.8063855 -201.33764648 232.9074707 C-189.58368459 224.21404327 -177.99958671 215.32197492 -166.94140625 205.75 C-166.3187085 205.21165527 -165.69601074 204.67331055 -165.05444336 204.11865234 C-163.83971927 203.06547846 -162.62811427 202.00869258 -161.42016602 200.94775391 C-156.16239219 196.38045607 -152.0511095 193.16610373 -144.8515625 193.3828125 C-140.83923095 194.24553225 -138.11734365 196.74987875 -135.5625 199.875 C-134.60973427 202.73329718 -134.38646618 204.7474894 -134.28125 207.7265625 C-134.22517578 209.12648438 -134.22517578 209.12648438 -134.16796875 210.5546875 C-134.09737685 212.52603168 -134.02706655 214.49738597 -133.95703125 216.46875 C-133.91964844 217.39945313 -133.88226562 218.33015625 -133.84375 219.2890625 C-133.81345703 220.1445166 -133.78316406 220.9999707 -133.75195312 221.88134766 C-133.77621476 223.87363252 -133.77621476 223.87363252 -132.5625 224.875 C-79.27966477 228.62817892 -3.03141631 212.10662365 38.22338867 176.9855957 C52.79000065 164.00307075 61.4966918 146.85851832 62.79296875 127.3203125 C63.77182057 103.94962855 53.21051672 83.92868898 37.9375 66.6875 C36.44386157 65.07740841 34.94421135 63.4728647 33.4375 61.875 C32.83679688 61.20984375 32.23609375 60.5446875 31.6171875 59.859375 C17.90951685 45.26159586 -0.17247163 36.36945063 -18.16796875 28.3046875 C-22.72390036 26.2600821 -27.25962893 24.18509541 -31.75 22 C-32.81605469 21.48695313 -33.88210938 20.97390625 -34.98046875 20.4453125 C-37.66312867 18.81380072 -39.01798313 17.59086189 -40.5625 14.875 C-41.09574215 10.15199812 -41.0292958 7.8646071 -39 3.5625 C-29.84296805 -6.53371472 -11.92542997 -2.10722261 0 0 Z " fill="#2FB968" transform="translate(898.5625,456.125)"/>
<path d="M0 0 C0.9597876 0.22518311 1.9195752 0.45036621 2.90844727 0.68237305 C23.49999388 5.67161978 40.66112122 14.10373084 57.5 26.875 C58.41990723 27.56263428 58.41990723 27.56263428 59.35839844 28.26416016 C77.79197201 42.0773953 77.79197201 42.0773953 79.1875 49.5625 C78.35171461 53.58946597 77.37048904 54.92073324 74.5 57.875 C71.48220274 59.81344183 68.31449803 61.42663161 65.125 63.0625 C56.35574034 67.72435771 48.36217805 72.82332351 40.5 78.875 C39.63117188 79.52082031 38.76234375 80.16664063 37.8671875 80.83203125 C27.28759503 89.03364192 16.69608289 98.96460623 8.44311523 109.50097656 C5.45711122 113.14916139 2.06792866 115.28356761 -2.484375 116.33203125 C-6.64506368 116.67875531 -9.09510754 115.83580733 -12.375 113.25 C-16.40540135 109.70699602 -17.35308799 105.56169864 -17.80859375 100.33203125 C-17.89480404 97.89463131 -17.97811933 95.45712731 -18.05859375 93.01953125 C-18.53990157 89.59074547 -18.84214744 88.90999468 -21.5 86.875 C-27.65403215 85.72405506 -34.25383371 87.35674181 -40.25 88.75 C-41.18610107 88.9670459 -42.12220215 89.1840918 -43.08666992 89.40771484 C-90.87030527 101.06908167 -137.92274625 124.65152303 -173.5 158.875 C-174.21285156 159.5246875 -174.92570313 160.174375 -175.66015625 160.84375 C-192.54076198 176.68400031 -203.06852924 199.72429616 -204.703125 222.734375 C-205.17785869 252.0096195 -193.79122702 277.03402042 -173.75 298.0625 C-159.43965258 311.8155909 -142.26021918 319.6595566 -123.94921875 326.73071289 C-117.7816901 329.15628904 -112.99439305 331.14386788 -109.6875 337.1875 C-107.97034801 342.51970882 -107.96542738 346.15248823 -109.625 351.5 C-112.18242653 356.10336776 -115.14536994 358.79752129 -119.94140625 360.9921875 C-125.16966245 362.28920825 -130.25726437 362.21472173 -135.625 362.1875 C-136.78281982 362.18186035 -137.94063965 362.1762207 -139.13354492 362.17041016 C-180.99600778 361.5875845 -220.20043721 344.43002926 -250.078125 315.3671875 C-280.32941833 283.45695228 -296.46300169 242.87276696 -295.75 199.04296875 C-294.79256314 167.88318599 -281.82698416 137.31692476 -261.5 113.875 C-260.79230469 113.04613281 -260.08460938 112.21726562 -259.35546875 111.36328125 C-209.14495782 53.94215404 -112.74918804 37.17829328 -40.94213867 27.38232422 C-40.24771667 27.28683289 -39.55329468 27.19134155 -38.83782959 27.09295654 C-36.95750584 26.8363686 -35.07631161 26.58618291 -33.19506836 26.33642578 C-30.58991662 26.15746234 -30.58991662 26.15746234 -29.5 24.875 C-29.4038592 23.52996038 -29.36803645 22.18047465 -29.359375 20.83203125 C-29.34003906 20.00509766 -29.32070313 19.17816406 -29.30078125 18.32617188 C-29.26730732 16.58681511 -29.24872763 14.84709872 -29.24609375 13.10742188 C-29.12111123 8.85472726 -28.90498606 5.79093956 -26.203125 2.38671875 C-18.49075629 -4.77954293 -9.45339975 -2.2448153 0 0 Z " fill="#1289DC" transform="translate(738.5,406.125)"/>
<path d="M0 0 C16.44052818 12.97314297 28.33565391 31.18969898 32 52 C33.78476639 80.15499753 28.51804422 102.60925243 10.0234375 124.3203125 C-2.68282139 137.97835108 -19.2363843 145.3837228 -37 150 C-37.62753174 150.176521 -38.25506348 150.35304199 -38.90161133 150.53491211 C-57.9539059 154.75767199 -80.48666984 149.04086439 -96.59765625 138.77734375 C-115.79988573 125.90646328 -128.95343551 108.14009869 -134.875 85.6875 C-137.82703289 70.0258165 -137.55215248 52.99446442 -132 38 C-131.649375 36.97261719 -131.29875 35.94523437 -130.9375 34.88671875 C-123.03317654 13.72618615 -106.01684831 -1.53370468 -85.98046875 -10.95947266 C-57.05334788 -23.92274982 -25.09638828 -18.95876481 0 0 Z " fill="#2FB968" transform="translate(1008,296)"/>
<path d="M0 0 C11.0682103 8.54082369 19.82634139 17.89060035 26.48046875 30.2265625 C27.20363281 31.54914063 27.20363281 31.54914063 27.94140625 32.8984375 C37.72635948 52.46834396 38.02940746 75.63543192 31.2265625 96.20703125 C26.61602977 109.01981654 18.97863871 119.56463099 9.48046875 129.2265625 C8.7946875 129.92523438 8.10890625 130.62390625 7.40234375 131.34375 C-9.28159118 147.22438436 -30.89139773 152.83553567 -53.33984375 152.50390625 C-76.19829519 151.65714091 -97.30334637 139.36934336 -112.63671875 122.9609375 C-129.02588676 103.70207081 -132.94687209 80.90442677 -131.51953125 56.2265625 C-130.23162453 44.58613779 -125.19814553 34.30237269 -119.51953125 24.2265625 C-118.82923828 22.96585937 -118.82923828 22.96585937 -118.125 21.6796875 C-106.78017707 2.89732205 -86.79590678 -8.74968124 -66.08984375 -14.1953125 C-43.24394211 -19.33390436 -19.02711747 -13.39273075 0 0 Z " fill="#1289DC" transform="translate(591.51953125,288.7734375)"/>
<path d="M0 0 C-9.59819365 10.14579265 -19.71543807 18.78911722 -31 27 C-32.22177714 27.90567967 -33.44315207 28.81190228 -34.6640625 29.71875 C-68.43531383 54.57794635 -107.73653734 70.96190797 -149 78 C-149.8254834 78.15098145 -150.6509668 78.30196289 -151.50146484 78.45751953 C-180.90438579 83.69412044 -213.62937544 83.11466024 -243 78 C-243.99225586 77.82839355 -244.98451172 77.65678711 -246.00683594 77.47998047 C-283.37857674 70.78036849 -319.60324619 57.57501829 -351 36 C-351.58620117 35.5978125 -352.17240234 35.195625 -352.77636719 34.78125 C-360.04683462 29.7590167 -367.02350448 24.49600823 -373.79296875 18.8125 C-376.06835233 16.88264936 -376.06835233 16.88264936 -379 15 C-378.67 14.34 -378.34 13.68 -378 13 C-377.15469727 13.14002441 -376.30939453 13.28004883 -375.43847656 13.42431641 C-366.82301827 14.76536834 -358.47731903 15.38382974 -349.75 15.375 C-347.8635376 15.37802124 -347.8635376 15.37802124 -345.93896484 15.38110352 C-337.84744692 15.29338918 -330.32486652 14.58492978 -322.54199219 12.33544922 C-314.14715514 9.92093016 -308.44964681 12.49131629 -301 16.125 C-246.3075422 41.60781105 -174.84648423 43.76064783 -118 24 C-113.4060973 22.2834833 -108.85501657 20.47283006 -104.3125 18.625 C-103.14549561 18.15199463 -101.97849121 17.67898926 -100.77612305 17.19165039 C-95.91034488 15.18153579 -91.14589678 13.18074764 -86.58203125 10.546875 C-72.92943828 2.87806343 -57.98139321 4.18730122 -42.77253723 4.12266541 C-35.88982001 4.06342804 -29.1350893 3.48445667 -22.3125 2.5625 C-21.3951709 2.43963623 -20.4778418 2.31677246 -19.53271484 2.19018555 C-14.30806285 1.44108064 -9.16889437 0.44625354 -4.02026367 -0.71508789 C-2 -1 -2 -1 0 0 Z " fill="#1288DC" transform="translate(950,782)"/>
<path d="M0 0 C1.1008342 -0.00101212 1.1008342 -0.00101212 2.22390747 -0.00204468 C62.4996046 0.0848676 122.63932148 17.83331517 172.875 51.25 C170.36966104 53.75533896 167.84117803 54.75007841 164.625 56.25 C154.25195693 61.26755745 144.69227629 67.91038476 136.62109375 76.16796875 C134.875 77.25 134.875 77.25 132.69140625 77.2109375 C128.65186874 75.83267644 125.09357685 73.76387436 121.375 71.6875 C94.24935244 57.02043467 62.49907521 48.31597261 31.875 45.25 C30.86050781 45.13914063 29.84601563 45.02828125 28.80078125 44.9140625 C-18.11301593 40.64392598 -66.1339812 49.43519385 -108.65625 69.65625 C-109.8009375 70.1821875 -110.945625 70.708125 -112.125 71.25 C-113.13820313 71.75015625 -114.15140625 72.2503125 -115.1953125 72.765625 C-118.125 73.25 -118.125 73.25 -121.2109375 71.390625 C-122.32196078 70.44403519 -123.41752731 69.47911076 -124.5 68.5 C-134.34302622 60.19299166 -145.09009711 52.97799756 -157.125 48.25 C-153.14561596 43.8616674 -148.88532226 41.03805649 -143.75 38.125 C-142.92346924 37.65344482 -142.09693848 37.18188965 -141.24536133 36.69604492 C-97.75373127 12.27777463 -49.83886865 0.04192978 0 0 Z " fill="#1289DC" transform="translate(745.125,201.75)"/>
<path d="M0 0 C0.86310791 0.1429248 1.72621582 0.28584961 2.61547852 0.43310547 C13.11005628 2.01847278 23.33944726 2.23809711 33.9375 2.125 C35.60351016 2.11493544 37.2695263 2.10581582 38.93554688 2.09765625 C42.95718329 2.07595177 46.97852244 2.04162026 51 2 C46.21882456 6.78117544 35.06055252 5.07074877 28.625 5.125 C21.04582043 5.07758073 13.55500408 4.57561936 6 4 C11.94 8.62 17.88 13.24 24 18 C19.93603879 18 18.56814021 16.40867699 15.375 13.9375 C14.58464355 13.32829712 14.58464355 13.32829712 13.77832031 12.70678711 C12.70191236 11.8760385 11.62768716 11.042454 10.55566406 10.20605469 C9.1196543 9.09276401 7.66601475 8.00231355 6.2109375 6.9140625 C5.39882813 6.30304687 4.58671875 5.69203125 3.75 5.0625 C3.02296875 4.51722656 2.2959375 3.97195313 1.546875 3.41015625 C1.03640625 2.94480469 0.5259375 2.47945312 0 2 C0 1.34 0 0.68 0 0 Z " fill="#0A6DD4" transform="translate(571,795)"/>
<path d="M0 0 C0.33 0 0.66 0 1 0 C1.43216564 8.21114717 0.1351683 16.07637086 -2 24 C-2.66 24.66 -3.32 25.32 -4 26 C-3.67 21.71 -3.34 17.42 -3 13 C-2.34 13 -1.68 13 -1 13 C-1.33 10.36 -1.66 7.72 -2 5 C-1.34 5 -0.68 5 0 5 C0 3.35 0 1.7 0 0 Z " fill="#1EAE52" transform="translate(1048,619)"/>
<path d="M0 0 C1.87353183 5.62059548 -2.4820529 11.86015385 -5 17 C-6.54103717 19.51808651 -8.13948461 21.70171629 -10 24 C-10.66 23.01 -11.32 22.02 -12 21 C-11.505 19.515 -11.505 19.515 -11 18 C-10.01 18.33 -9.02 18.66 -8 19 C-6.5783681 15.6828589 -5.60990891 12.55780196 -5 9 C-4.34 9 -3.68 9 -3 9 C-2.01 6.03 -1.02 3.06 0 0 Z " fill="#0F73D5" transform="translate(622,381)"/>
<path d="M0 0 C-3.63 3.63 -7.26 7.26 -11 11 C-11.66 10.67 -12.32 10.34 -13 10 C-10.69 7.69 -8.38 5.38 -6 3 C-8.97 3 -11.94 3 -15 3 C-12.04808566 1.03205711 -10.34507977 0.47996408 -6.9375 -0.1875 C-6.05964844 -0.36667969 -5.18179688 -0.54585937 -4.27734375 -0.73046875 C-2 -1 -2 -1 0 0 Z " fill="#0767D2" transform="translate(950,782)"/>
<path d="M0 0 C3 3 3 3 3.34057617 5.4519043 C3.32486572 6.39976807 3.30915527 7.34763184 3.29296875 8.32421875 C3.28330078 9.35224609 3.27363281 10.38027344 3.26367188 11.43945312 C3.23853516 12.51130859 3.21339844 13.58316406 3.1875 14.6875 C3.16719727 16.31268555 3.16719727 16.31268555 3.14648438 17.97070312 C3.11110643 20.64763405 3.06174189 23.32356838 3 26 C2.67 26 2.34 26 2 26 C1.67 21.71 1.34 17.42 1 13 C0.67 13 0.34 13 0 13 C0 8.71 0 4.42 0 0 Z " fill="#1C8FDD" transform="translate(443,599)"/>
<path d="M0 0 C1.0259568 4.10382719 0.84726463 5.52328936 -0.92578125 9.25390625 C-2.80994696 12.31653197 -5.01431559 14.04782173 -8 16 C-11.875 16.8125 -11.875 16.8125 -15 17 C-14.443125 16.731875 -13.88625 16.46375 -13.3125 16.1875 C-7.40772619 13.34295825 -7.40772619 13.34295825 -4 8 C-3.34 8 -2.68 8 -2 8 C-1.34 5.36 -0.68 2.72 0 0 Z " fill="#0D6FD4" transform="translate(629,750)"/>
<path d="M0 0 C-0.556875 0.226875 -1.11375 0.45375 -1.6875 0.6875 C-4.63246684 2.35896766 -6.68156544 4.55276352 -9 7 C-9 6.34 -9 5.68 -9 5 C-10.32 5.33 -11.64 5.66 -13 6 C-9.41603189 2.00249711 -5.50726745 -1.83575582 0 0 Z " fill="#0D74D7" transform="translate(512,281)"/>
<path d="M0 0 C0.99 0.33 1.98 0.66 3 1 C1.35 2.98 -0.3 4.96 -2 7 C-3.32 6.34 -4.64 5.68 -6 5 C-1.60546875 0.99609375 -1.60546875 0.99609375 0 0 Z " fill="#23B059" transform="translate(704,684)"/>
<path d="M0 0 C0.66 0.33 1.32 0.66 2 1 C0.54782324 2.50596108 -0.91192861 4.00462104 -2.375 5.5 C-3.18710937 6.3353125 -3.99921875 7.170625 -4.8359375 8.03125 C-7 10 -7 10 -9 10 C-9 8.68 -9 7.36 -9 6 C-8.01 6 -7.02 6 -6 6 C-5.67 5.34 -5.34 4.68 -5 4 C-3.35704805 2.63755204 -1.69175663 1.30135125 0 0 Z " fill="#0F75D7" transform="translate(571,556)"/>
<path d="M0 0 C-1.75864246 2.1793144 -2.69396 2.93686419 -5.48046875 3.51171875 C-6.82044922 3.59873047 -6.82044922 3.59873047 -8.1875 3.6875 C-9.08855469 3.75324219 -9.98960937 3.81898438 -10.91796875 3.88671875 C-11.60503906 3.92410156 -12.29210937 3.96148437 -13 4 C-12 2 -12 2 -10.0390625 1.11328125 C-9.24242187 0.84902344 -8.44578125 0.58476562 -7.625 0.3125 C-6.83351563 0.04050781 -6.04203125 -0.23148437 -5.2265625 -0.51171875 C-3 -1 -3 -1 0 0 Z " fill="#0B71D3" transform="translate(569,466)"/>
<path d="M0 0 C0.33 0 0.66 0 1 0 C1.05447047 1.41623216 1.09300508 2.83308191 1.125 4.25 C1.14820313 5.03890625 1.17140625 5.8278125 1.1953125 6.640625 C0.9828378 9.20731941 0.28654105 10.7916067 -1 13 C-1.33 10.36 -1.66 7.72 -2 5 C-1.34 5 -0.68 5 0 5 C0 3.35 0 1.7 0 0 Z " fill="#15AA48" transform="translate(1048,619)"/>
<path d="M0 0 C0 0.99 0 1.98 0 3 C-2.64 3.33 -5.28 3.66 -8 4 C-7.67 3.01 -7.34 2.02 -7 1 C-4 0 -4 0 0 0 Z " fill="#187FDA" transform="translate(793,816)"/>
<path d="M0 0 C0.1875 3.3125 0.1875 3.3125 0 7 C-0.99 7.99 -1.98 8.98 -3 10 C-3 7.03 -3 4.06 -3 1 C-1 0 -1 0 0 0 Z " fill="#3EBE73" transform="translate(1050,592)"/>
<path d="M0 0 C0.99 0 1.98 0 3 0 C3 2.64 3 5.28 3 8 C2.67 7.34 2.34 6.68 2 6 C1.34 6 0.68 6 0 6 C0 4.02 0 2.04 0 0 Z " fill="#3ABC6F" transform="translate(872,349)"/>
</svg>
